<svg xmlns="http://www.w3.org/2000/svg" xmlns:xlink="http://www.w3.org/1999/xlink" width="200" height="63.93" viewBox="0 0 200 63.93">
  <defs>
    <clipPath id="clip-path">
      <rect id="Rectangle_3341" data-name="Rectangle 3341" width="200" height="63.93" fill="none"/>
    </clipPath>
  </defs>
  <g id="logo" clip-path="url(#clip-path)">
    <g id="Group_22257" data-name="Group 22257" transform="translate(0 0)">
      <g id="Group_22256" data-name="Group 22256" clip-path="url(#clip-path)">
        <path id="Path_40000" data-name="Path 40000" d="M8.912.28A11.535,11.535,0,0,1,5.588-.167a8.534,8.534,0,0,1-2.66-1.318A10.18,10.18,0,0,1,.834-3.593L3.461-6.572a8.188,8.188,0,0,0,2.746,2.58,6.469,6.469,0,0,0,2.947.685,4.661,4.661,0,0,0,1.551-.243,2.541,2.541,0,0,0,1.089-.69,1.548,1.548,0,0,0,.4-1.061,1.74,1.74,0,0,0-.2-.821,2.109,2.109,0,0,0-.562-.665,4.26,4.26,0,0,0-.88-.53,8.031,8.031,0,0,0-1.127-.415Q8.812-7.912,8.1-8.047a13.989,13.989,0,0,1-2.752-.866,6.717,6.717,0,0,1-1.963-1.293,4.878,4.878,0,0,1-1.169-1.749,6.074,6.074,0,0,1-.38-2.208,4.91,4.91,0,0,1,.572-2.347,5.864,5.864,0,0,1,1.559-1.853,7.263,7.263,0,0,1,2.289-1.2,8.9,8.9,0,0,1,2.763-.422,11.1,11.1,0,0,1,3.131.4,7.048,7.048,0,0,1,2.338,1.162,7.032,7.032,0,0,1,1.668,1.841l-2.672,2.6a6.556,6.556,0,0,0-1.271-1.325,5.067,5.067,0,0,0-1.48-.8,5.1,5.1,0,0,0-1.645-.268,4.657,4.657,0,0,0-1.588.243,2.424,2.424,0,0,0-1.051.693,1.627,1.627,0,0,0-.38,1.087,1.569,1.569,0,0,0,.262.893,2.394,2.394,0,0,0,.735.688,5.155,5.155,0,0,0,1.143.514,12.826,12.826,0,0,0,1.468.376,15.5,15.5,0,0,1,2.777.822A8.507,8.507,0,0,1,14.578-9.84a4.882,4.882,0,0,1,1.356,1.677A4.89,4.89,0,0,1,16.4-6a5.909,5.909,0,0,1-.95,3.39A6.024,6.024,0,0,1,12.818-.462,9.607,9.607,0,0,1,8.912.28Zm17.752,0a8.623,8.623,0,0,1-4.2-.982,7.131,7.131,0,0,1-2.8-2.69,7.621,7.621,0,0,1-1-3.924,8.536,8.536,0,0,1,.56-3.142,7.5,7.5,0,0,1,1.565-2.478,6.947,6.947,0,0,1,2.391-1.624,7.818,7.818,0,0,1,3.021-.574,6.937,6.937,0,0,1,2.8.557,6.693,6.693,0,0,1,2.218,1.547,6.8,6.8,0,0,1,1.438,2.341,7.848,7.848,0,0,1,.462,2.945l-.028,1.211h-11.9l-.644-2.438h9.271l-.463.509v-.607a2.627,2.627,0,0,0-.48-1.374,2.99,2.99,0,0,0-1.11-.947,3.313,3.313,0,0,0-1.514-.344,4.19,4.19,0,0,0-2.09.481,3.1,3.1,0,0,0-1.29,1.4,5.163,5.163,0,0,0-.439,2.245,4.607,4.607,0,0,0,.562,2.32A3.817,3.817,0,0,0,24.6-3.763a5.364,5.364,0,0,0,2.482.54,5.078,5.078,0,0,0,1.8-.3A6.3,6.3,0,0,0,30.623-4.6l1.9,2.675a7.977,7.977,0,0,1-1.79,1.209,9.91,9.91,0,0,1-2.011.738A8.549,8.549,0,0,1,26.664.28ZM37.476,0V-18.572h3.973V0ZM34.707-11.247v-3.562H44.5v3.562ZM47.118,0V-20.72h3.973V0Zm13,.269a5.8,5.8,0,0,1-3.323-1,7.054,7.054,0,0,1-2.356-2.744,8.7,8.7,0,0,1-.874-3.958,8.686,8.686,0,0,1,.877-3.977,6.844,6.844,0,0,1,2.4-2.718,6.212,6.212,0,0,1,3.453-.985,6.089,6.089,0,0,1,2,.314,5.132,5.132,0,0,1,1.6.878,5.471,5.471,0,0,1,1.154,1.3,5.11,5.11,0,0,1,.667,1.577l-.84-.148v-3.612h3.947V0h-4V-3.565l.9-.077A4.632,4.632,0,0,1,65-2.155,5.413,5.413,0,0,1,63.743-.908a6.5,6.5,0,0,1-1.666.858A5.912,5.912,0,0,1,60.117.269Zm1.094-3.422a3.565,3.565,0,0,0,1.959-.535,3.571,3.571,0,0,0,1.3-1.5,5.12,5.12,0,0,0,.465-2.247,5.056,5.056,0,0,0-.465-2.226,3.576,3.576,0,0,0-1.3-1.5,3.564,3.564,0,0,0-1.959-.535,3.463,3.463,0,0,0-1.928.535,3.61,3.61,0,0,0-1.29,1.5,5.058,5.058,0,0,0-.465,2.226,5.122,5.122,0,0,0,.465,2.247,3.6,3.6,0,0,0,1.29,1.5A3.464,3.464,0,0,0,61.211-3.153ZM72.806,0V-14.809h3.827l.131,4.762-.661-.99a5.754,5.754,0,0,1,1.088-2.079A5.722,5.722,0,0,1,78.97-14.58a4.544,4.544,0,0,1,2.144-.537,5.262,5.262,0,0,1,.926.079,4.869,4.869,0,0,1,.757.191l-1.072,4.367a3.9,3.9,0,0,0-.8-.287,3.941,3.941,0,0,0-.994-.125,3.189,3.189,0,0,0-1.235.24,2.922,2.922,0,0,0-1,.676,3.263,3.263,0,0,0-.663,1.019,3.339,3.339,0,0,0-.243,1.3V0ZM87.131,6.44l3.262-7.611.039,2.3L83.216-14.809H87.73l3.612,8.543q.216.476.429,1.1a11.372,11.372,0,0,1,.341,1.2l-.662.3q.18-.479.4-1.094T92.29-6.07L95.4-14.809h4.549L93.711,0,91.165,6.44Z" transform="translate(74.993 28.682)" fill="#fff"/>
        <g id="Group_22255" data-name="Group 22255" transform="translate(76.899 41.289)" opacity="0.7">
          <g id="Group_22254" data-name="Group 22254" transform="translate(0 0)">
            <g id="Group_22260" data-name="Group 22260" transform="translate(0 0)">
              <path id="Path_40001" data-name="Path 40001" d="M.918,0V-5.95h3.46v.425H1.343v5.1h3V0Zm.2-2.856v-.425H3.893v.425ZM7.31.085a1.994,1.994,0,0,1-1.08-.3,2.113,2.113,0,0,1-.752-.816A2.474,2.474,0,0,1,5.2-2.21,2.432,2.432,0,0,1,5.487-3.4a2.177,2.177,0,0,1,.761-.816,1.964,1.964,0,0,1,1.063-.3,2.029,2.029,0,0,1,.646.1,1.963,1.963,0,0,1,.553.285,1.97,1.97,0,0,1,.425.429,1.608,1.608,0,0,1,.255.535l-.17-.11L9.061-4.42h.408V0H9.044V-1.105l.144-.161a1.62,1.62,0,0,1-.255.527,2.054,2.054,0,0,1-.425.433,1.9,1.9,0,0,1-.553.289A2.029,2.029,0,0,1,7.31.085ZM7.37-.34a1.607,1.607,0,0,0,.871-.242,1.728,1.728,0,0,0,.612-.663,2.031,2.031,0,0,0,.225-.973,2.044,2.044,0,0,0-.221-.965,1.7,1.7,0,0,0-.608-.663,1.623,1.623,0,0,0-.88-.242,1.638,1.638,0,0,0-.888.242,1.7,1.7,0,0,0-.608.663,2.044,2.044,0,0,0-.221.965,2.084,2.084,0,0,0,.217.961,1.689,1.689,0,0,0,.6.672A1.632,1.632,0,0,0,7.37-.34ZM10.71,0V-4.42h.408l.043.986H11.1a1.72,1.72,0,0,1,.289-.527,1.529,1.529,0,0,1,.48-.4,1.371,1.371,0,0,1,.659-.153,1.578,1.578,0,0,1,.268.021q.123.021.225.047l-.127.493a.952.952,0,0,0-.229-.068,1.3,1.3,0,0,0-.2-.017,1.365,1.365,0,0,0-.591.119,1.159,1.159,0,0,0-.417.327,1.416,1.416,0,0,0-.247.472,1.875,1.875,0,0,0-.081.553V0Zm2.95,0V-6.29h.425V0Zm2.312,1.955.825-2.1.094.51L14.662-4.42h.451L16.753-.9q.094.187.166.374t.157.383l-.255-.1q.051-.119.1-.242t.1-.242L18.5-4.42h.45L17.187,0l-.774,1.955ZM23.953.085a2.576,2.576,0,0,1-.812-.128,2.4,2.4,0,0,1-.714-.378,2.6,2.6,0,0,1-.574-.616l.306-.314a2.306,2.306,0,0,0,.833.778,2.124,2.124,0,0,0,.978.234A1.984,1.984,0,0,0,24.778-.5a1.394,1.394,0,0,0,.565-.434,1.011,1.011,0,0,0,.208-.625.944.944,0,0,0-.081-.408.894.894,0,0,0-.229-.3,1.57,1.57,0,0,0-.357-.225,3.673,3.673,0,0,0-.468-.178q-.259-.081-.557-.166-.408-.119-.727-.246a2.164,2.164,0,0,1-.544-.306,1.166,1.166,0,0,1-.34-.425,1.424,1.424,0,0,1-.115-.6,1.441,1.441,0,0,1,.14-.637,1.5,1.5,0,0,1,.4-.5,1.845,1.845,0,0,1,.591-.327,2.233,2.233,0,0,1,.727-.115,2.241,2.241,0,0,1,.8.132,1.923,1.923,0,0,1,.608.37,2.893,2.893,0,0,1,.476.561l-.314.306a2.614,2.614,0,0,0-.417-.5,1.671,1.671,0,0,0-.514-.327,1.7,1.7,0,0,0-.642-.115,1.7,1.7,0,0,0-.727.149,1.257,1.257,0,0,0-.506.412,1.017,1.017,0,0,0-.187.6.92.92,0,0,0,.089.416.829.829,0,0,0,.281.31,2.144,2.144,0,0,0,.485.238,7.246,7.246,0,0,0,.7.208,5.675,5.675,0,0,1,.757.238,2.6,2.6,0,0,1,.591.323,1.263,1.263,0,0,1,.382.451,1.413,1.413,0,0,1,.132.638,1.459,1.459,0,0,1-.264.854,1.789,1.789,0,0,1-.722.6A2.42,2.42,0,0,1,23.953.085Zm4.862,0a1.994,1.994,0,0,1-1.079-.3,2.113,2.113,0,0,1-.752-.816,2.474,2.474,0,0,1-.276-1.182,2.432,2.432,0,0,1,.285-1.19,2.177,2.177,0,0,1,.761-.816,1.964,1.964,0,0,1,1.063-.3,2.029,2.029,0,0,1,.646.1,1.963,1.963,0,0,1,.553.285,1.97,1.97,0,0,1,.425.429,1.608,1.608,0,0,1,.255.535l-.17-.11.043-1.148h.408V0h-.425V-1.105l.145-.161a1.62,1.62,0,0,1-.255.527,2.054,2.054,0,0,1-.425.433,1.9,1.9,0,0,1-.553.289A2.029,2.029,0,0,1,28.815.085Zm.06-.425a1.607,1.607,0,0,0,.871-.242,1.728,1.728,0,0,0,.612-.663,2.031,2.031,0,0,0,.225-.973,2.044,2.044,0,0,0-.221-.965,1.7,1.7,0,0,0-.608-.663,1.622,1.622,0,0,0-.88-.242,1.638,1.638,0,0,0-.888.242,1.7,1.7,0,0,0-.608.663,2.044,2.044,0,0,0-.221.965,2.084,2.084,0,0,0,.217.961,1.689,1.689,0,0,0,.6.672A1.632,1.632,0,0,0,28.875-.34ZM32.232,0V-6.29h.425V0ZM35.59.085a1.994,1.994,0,0,1-1.08-.3,2.113,2.113,0,0,1-.752-.816,2.474,2.474,0,0,1-.276-1.182,2.432,2.432,0,0,1,.285-1.19,2.177,2.177,0,0,1,.761-.816,1.964,1.964,0,0,1,1.063-.3,2.029,2.029,0,0,1,.646.1,1.963,1.963,0,0,1,.552.285,1.97,1.97,0,0,1,.425.429,1.608,1.608,0,0,1,.255.535l-.17-.11L37.34-4.42h.408V0h-.425V-1.105l.145-.161a1.62,1.62,0,0,1-.255.527,2.054,2.054,0,0,1-.425.433,1.9,1.9,0,0,1-.552.289A2.029,2.029,0,0,1,35.59.085Zm.059-.425a1.607,1.607,0,0,0,.871-.242,1.728,1.728,0,0,0,.612-.663,2.031,2.031,0,0,0,.225-.973,2.044,2.044,0,0,0-.221-.965,1.7,1.7,0,0,0-.608-.663,1.622,1.622,0,0,0-.88-.242,1.638,1.638,0,0,0-.888.242,1.7,1.7,0,0,0-.608.663,2.044,2.044,0,0,0-.221.965,2.084,2.084,0,0,0,.217.961,1.689,1.689,0,0,0,.6.672A1.632,1.632,0,0,0,35.649-.34Zm3.34.34V-4.42H39.4l.042.986h-.059a1.72,1.72,0,0,1,.289-.527,1.529,1.529,0,0,1,.48-.4,1.371,1.371,0,0,1,.659-.153,1.578,1.578,0,0,1,.268.021q.123.021.225.047l-.127.493a.952.952,0,0,0-.229-.068,1.3,1.3,0,0,0-.2-.017,1.365,1.365,0,0,0-.591.119,1.159,1.159,0,0,0-.417.327,1.416,1.416,0,0,0-.246.472,1.875,1.875,0,0,0-.081.553V0Zm3.689,1.955.825-2.1.093.51L41.369-4.42h.451L43.46-.9q.093.187.166.374t.157.383l-.255-.1q.051-.119.1-.242t.1-.242L45.2-4.42h.451L43.894,0,43.12,1.955ZM49.734,0,48.17-4.42h.493l1.3,3.859-.229-.017,1.411-3.179H51.4L52.811-.578l-.272.017L53.882-4.42h.468L52.785,0h-.161l-1.5-3.46h.306L49.921,0Zm5.5,0V-4.42h.425V0Zm.212-5.346a.391.391,0,0,1-.289-.1.379.379,0,0,1-.1-.281.382.382,0,0,1,.1-.276.382.382,0,0,1,.289-.106.391.391,0,0,1,.289.1.379.379,0,0,1,.1.28.382.382,0,0,1-.1.276A.382.382,0,0,1,55.445-5.346ZM57.766,0V-5.6h.425V0ZM56.7-4.029V-4.42h2.678v.391ZM60.146,0V-6.29h.425V-3.4l-.1.161a1.487,1.487,0,0,1,.357-.684,1.816,1.816,0,0,1,.616-.438,1.77,1.77,0,0,1,.71-.153,1.66,1.66,0,0,1,.846.2,1.166,1.166,0,0,1,.5.6,2.845,2.845,0,0,1,.161,1.037V0h-.425V-2.661a2.207,2.207,0,0,0-.128-.812.946.946,0,0,0-.387-.476,1.253,1.253,0,0,0-.659-.157,1.493,1.493,0,0,0-.587.115,1.5,1.5,0,0,0-.472.31,1.484,1.484,0,0,0-.314.446,1.262,1.262,0,0,0-.115.531V0h-.425Zm7.42,0V-5.95h2.142a1.844,1.844,0,0,1,.939.238,1.766,1.766,0,0,1,.65.642,1.765,1.765,0,0,1,.238.914,1.726,1.726,0,0,1-.225.892,1.6,1.6,0,0,1-.62.6,1.834,1.834,0,0,1-.9.217h-1.8V0Zm3.706,0L69.793-2.559l.357-.221L71.765,0ZM67.992-2.873h1.853a1.271,1.271,0,0,0,.646-.161,1.135,1.135,0,0,0,.438-.451,1.347,1.347,0,0,0,.157-.654,1.421,1.421,0,0,0-.178-.714,1.279,1.279,0,0,0-.5-.493,1.462,1.462,0,0,0-.727-.178H67.992ZM74.273.085A2.216,2.216,0,0,1,73.138-.2a2.032,2.032,0,0,1-.778-.808,2.5,2.5,0,0,1-.28-1.207,2.58,2.58,0,0,1,.157-.918,2.263,2.263,0,0,1,.438-.727,1.923,1.923,0,0,1,.676-.48,2.16,2.16,0,0,1,.863-.17,2.149,2.149,0,0,1,.829.153,1.7,1.7,0,0,1,.625.438,1.871,1.871,0,0,1,.382.671,2.43,2.43,0,0,1,.11.854l-.008.23H72.395v-.391h3.527l-.187.153v-.2a1.54,1.54,0,0,0-.166-.68,1.449,1.449,0,0,0-.506-.569,1.5,1.5,0,0,0-.858-.23,1.731,1.731,0,0,0-.863.213,1.5,1.5,0,0,0-.6.621,2.137,2.137,0,0,0-.217,1.011,2.245,2.245,0,0,0,.212,1.007,1.534,1.534,0,0,0,.616.663,1.948,1.948,0,0,0,.99.234A2.191,2.191,0,0,0,75-.442a2.326,2.326,0,0,0,.748-.442l.221.314a2.355,2.355,0,0,1-.442.327,2.455,2.455,0,0,1-.57.238A2.482,2.482,0,0,1,74.273.085Zm4.913,0a1.991,1.991,0,0,1-.642-.1A2.042,2.042,0,0,1,77.992-.3a1.851,1.851,0,0,1-.425-.429,1.668,1.668,0,0,1-.251-.527l.153.136L77.427,0h-.408V-6.29h.425v2.975l-.128.144a1.668,1.668,0,0,1,.251-.527,1.851,1.851,0,0,1,.425-.429,2.042,2.042,0,0,1,.552-.285,1.991,1.991,0,0,1,.642-.1,1.964,1.964,0,0,1,1.063.3,2.177,2.177,0,0,1,.761.816,2.432,2.432,0,0,1,.285,1.19,2.474,2.474,0,0,1-.276,1.182,2.113,2.113,0,0,1-.752.816A1.994,1.994,0,0,1,79.186.085Zm-.06-.425a1.632,1.632,0,0,0,.9-.246,1.689,1.689,0,0,0,.6-.672,2.084,2.084,0,0,0,.217-.961,2.044,2.044,0,0,0-.221-.965,1.7,1.7,0,0,0-.608-.663,1.638,1.638,0,0,0-.888-.242,1.638,1.638,0,0,0-.888.242,1.7,1.7,0,0,0-.608.663,2.044,2.044,0,0,0-.221.965,2.031,2.031,0,0,0,.225.973,1.728,1.728,0,0,0,.612.663A1.623,1.623,0,0,0,79.127-.34Zm4.819.425a1.994,1.994,0,0,1-1.079-.3,2.113,2.113,0,0,1-.752-.816,2.474,2.474,0,0,1-.276-1.182,2.432,2.432,0,0,1,.285-1.19,2.177,2.177,0,0,1,.761-.816,1.964,1.964,0,0,1,1.063-.3,2.029,2.029,0,0,1,.646.1,1.962,1.962,0,0,1,.552.285,1.97,1.97,0,0,1,.425.429,1.608,1.608,0,0,1,.255.535l-.17-.11L85.7-4.42h.408V0H85.68V-1.105l.145-.161a1.621,1.621,0,0,1-.255.527,2.054,2.054,0,0,1-.425.433,1.9,1.9,0,0,1-.552.289A2.029,2.029,0,0,1,83.946.085Zm.06-.425a1.607,1.607,0,0,0,.871-.242,1.728,1.728,0,0,0,.612-.663,2.031,2.031,0,0,0,.225-.973,2.044,2.044,0,0,0-.221-.965,1.7,1.7,0,0,0-.608-.663,1.623,1.623,0,0,0-.88-.242,1.638,1.638,0,0,0-.888.242,1.7,1.7,0,0,0-.608.663,2.044,2.044,0,0,0-.221.965,2.084,2.084,0,0,0,.217.961,1.689,1.689,0,0,0,.6.672A1.632,1.632,0,0,0,84.006-.34ZM88.018,0V-5.6h.425V0ZM86.955-4.029V-4.42h2.677v.391ZM92.2.085A2.216,2.216,0,0,1,91.065-.2a2.032,2.032,0,0,1-.778-.808,2.5,2.5,0,0,1-.28-1.207,2.58,2.58,0,0,1,.157-.918,2.263,2.263,0,0,1,.438-.727,1.923,1.923,0,0,1,.676-.48,2.16,2.16,0,0,1,.863-.17,2.149,2.149,0,0,1,.829.153,1.7,1.7,0,0,1,.625.438,1.871,1.871,0,0,1,.382.671,2.43,2.43,0,0,1,.11.854l-.008.23H90.321v-.391h3.527l-.187.153v-.2a1.54,1.54,0,0,0-.166-.68,1.449,1.449,0,0,0-.506-.569,1.5,1.5,0,0,0-.858-.23,1.731,1.731,0,0,0-.863.213,1.5,1.5,0,0,0-.6.621,2.137,2.137,0,0,0-.217,1.011,2.245,2.245,0,0,0,.212,1.007,1.534,1.534,0,0,0,.616.663,1.948,1.948,0,0,0,.99.234,2.191,2.191,0,0,0,.646-.1,2.326,2.326,0,0,0,.748-.442l.221.314a2.355,2.355,0,0,1-.442.327,2.455,2.455,0,0,1-.57.238A2.482,2.482,0,0,1,92.2.085Zm4.182,0A2.269,2.269,0,0,1,95.353-.14a1.874,1.874,0,0,1-.689-.548l.323-.28a1.507,1.507,0,0,0,.6.472,1.975,1.975,0,0,0,.824.166,1.856,1.856,0,0,0,.468-.055,1.142,1.142,0,0,0,.361-.157.758.758,0,0,0,.234-.251.665.665,0,0,0,.085-.336.677.677,0,0,0-.315-.561,1.683,1.683,0,0,0-.365-.187q-.221-.085-.519-.17-.45-.136-.765-.255a1.471,1.471,0,0,1-.5-.3,1.014,1.014,0,0,1-.2-.31.943.943,0,0,1-.068-.361,1.114,1.114,0,0,1,.111-.5,1.2,1.2,0,0,1,.314-.4,1.433,1.433,0,0,1,.476-.259,1.928,1.928,0,0,1,.6-.089,2.205,2.205,0,0,1,.621.089,2.336,2.336,0,0,1,.569.251,2.134,2.134,0,0,1,.459.374l-.289.315a2.4,2.4,0,0,0-.37-.332,1.643,1.643,0,0,0-.438-.225,1.632,1.632,0,0,0-.527-.081,1.5,1.5,0,0,0-.429.06,1.011,1.011,0,0,0-.344.174.86.86,0,0,0-.225.264.675.675,0,0,0-.081.327.553.553,0,0,0,.051.242.613.613,0,0,0,.161.2,1.265,1.265,0,0,0,.387.2q.242.085.6.187.323.085.57.17a1.853,1.853,0,0,1,.425.2,1.159,1.159,0,0,1,.4.4A1.04,1.04,0,0,1,98-1.164a1.07,1.07,0,0,1-.2.646,1.368,1.368,0,0,1-.57.442A2.064,2.064,0,0,1,96.382.085Z" transform="translate(0 8)" fill="#fff"/>
            </g>
          </g>
        </g>
        <rect id="Rectangle_3338" data-name="Rectangle 3338" width="63.424" height="63.425" rx="10" transform="translate(0.253 0.253)" fill="#fff"/>
        <path id="Path_21232" data-name="Path 21232" d="M64.175,58.356A4.773,4.773,0,0,1,59.4,63.129H32.608a4.772,4.772,0,1,1,0-9.545H59.4a4.772,4.772,0,0,1,4.773,4.772" transform="translate(-13.761 -26.491)" fill="#fee57c"/>
        <path id="Path_21233" data-name="Path 21233" d="M51.052,22.871a4.94,4.94,0,0,1,.014,6.985L34.875,46.312a4.939,4.939,0,1,1-7-6.971l16.19-16.456a4.94,4.94,0,0,1,6.985-.014" transform="translate(-13.07 -10.595)" fill="#8ad7bc"/>
        <path id="Path_21234" data-name="Path 21234" d="M36.48,61.054A2.754,2.754,0,1,1,33.726,58.3a2.754,2.754,0,0,1,2.754,2.754" transform="translate(-15.312 -28.822)" fill="#fff"/>
        <path id="Path_21235" data-name="Path 21235" d="M73.061,55.205a4.939,4.939,0,0,1,.016,6.985L56.89,78.65a4.939,4.939,0,0,1-7-6.969L66.076,55.22a4.94,4.94,0,0,1,6.985-.015" transform="translate(-23.953 -26.581)" fill="#283874"/>
        <path id="Path_21236" data-name="Path 21236" d="M89.643,61.054A2.753,2.753,0,1,1,86.89,58.3a2.753,2.753,0,0,1,2.753,2.754" transform="translate(-41.595 -28.822)" fill="#fff"/>
      </g>
    </g>
  </g>
</svg>
